<?xml version="1.0" standalone="no"?>
<!DOCTYPE svg PUBLIC "-//W3C//DTD SVG 20010904//EN" "http://www.w3.org/TR/2001/REC-SVG-20010904/DTD/svg10.dtd">
<!-- Created using Krita: https://krita.org -->
<svg xmlns="http://www.w3.org/2000/svg" 
    xmlns:xlink="http://www.w3.org/1999/xlink"
    xmlns:krita="http://krita.org/namespaces/svg/krita"
    xmlns:sodipodi="http://sodipodi.sourceforge.net/DTD/sodipodi-0.dtd"
    width="600pt"
    height="600pt"
    viewBox="0 0 600 600">
<defs/>
<path id="shape0" transform="matrix(-1.15968412569907 0 0 1.15968412569907 581.275585752546 398.609825330581)" fill="#000000" fill-rule="evenodd" stroke="#000000" stroke-width="1" stroke-linecap="square" stroke-linejoin="bevel" d="M15.1487 98.5126C32.0664 81.3758 81.5281 78.9075 207.579 26.8983L199.274 0C132.958 17.8191 86.2726 39.9682 0.860572 52.7457C-2.12022 55.8483 2.64249 71.1039 15.1487 98.5126Z" sodipodi:nodetypes="ccccc"/><path id="shape1" transform="matrix(-1.15968412569907 0 0 1.15968412569907 592.828527249352 458.071809950871)" fill="#ffffff" fill-rule="evenodd" stroke="#000000" stroke-width="1" stroke-linecap="square" stroke-linejoin="bevel" d="M11.9761 0.0415079C15.4419 -0.034355 36.6761 19.4771 35.9282 35.7438C33.3088 41.176 27.3586 44.3181 28.2068 52.1343C23.8511 54.1985 19.6771 55.6689 16.7544 49.9204C16.011 41.9211 23.361 42.6016 0 10.6618C4.04625 3.11044 8.03828 -0.42966 11.9761 0.0415079Z" sodipodi:nodetypes="cccccc"/><path id="shape2" transform="matrix(-1.15968412569907 0 0 1.15968412569907 230.019665791675 376.324695069561)" fill="#000000" fill-rule="evenodd" stroke="#000000" stroke-width="1" stroke-linecap="square" stroke-linejoin="bevel" d="M54.5783 7.07482C64.8175 4.47552 81.3917 6.19552 98.8652 8.52873C113.555 16.5048 117.887 11.8492 123.257 8.45916C131.993 13.2863 136.249 18.585 162.993 21.5166C189.28 17.7765 175.863 -1.20161 159.64 2.56699C174.826 -3.79885 183.116 2.36346 188.358 13.4887C195.891 33.4207 194.59 48.4206 162.497 50.8211C161.223 50.9164 158.645 52.3625 156.898 56.7926C153.04 54.379 150.908 47.0037 149.712 36.9392C140.927 32.0887 128.803 30.312 112.023 29.7926C107.043 34.6424 102.967 44.4255 94.6477 44.4176C102.521 39.4119 102.832 32.9176 97.3977 24.9176C91.8051 25.3946 89.104 20.3636 75.2727 25.4176C73.2731 27.6476 69.7516 26.5573 71.128 36.1531L0.000392732 29.8622C-0.097473 29.7092 18.0952 22.1134 54.5783 7.07482Z" sodipodi:nodetypes="cccccccccccccccc"/><path id="shape01" transform="matrix(-1.15968420156473 0 0 1.15968420156473 424.208901905952 255.64090250767)" fill="#ffffff" fill-rule="evenodd" stroke="#000000" stroke-width="1" stroke-linecap="square" stroke-linejoin="bevel" d="M89.0521 69.6087L81.935 146.214C75.5003 157.301 82.9878 161.264 46.2873 198.585C57.6361 170.419 52.9283 171.604 56.7049 142.24C58.2975 124.048 54.032 114.96 51.5504 102.437C53.2512 114.99 58.1204 126.799 53.5497 140.824C42.9479 157.287 30.6148 156.179 19.8104 176.17C30.5958 149.565 19.0546 154.347 21.5875 130.642C18.8874 151.295 13.3992 153.77 11.3685 176.383C13.0874 149.005 3.25174 152.343 3.05822 135.195C6.37671 111.749 10.6031 95.8621 0 92.7805L48.6452 17.716C91.589 -17.5059 105.058 -0.208248 89.0521 69.6087Z" sodipodi:nodetypes="ccccccccccccc"/><path id="shape11" transform="matrix(-1.15968420156473 0 0 1.15968420156473 341.188774230379 296.454519451475)" fill="#ffffff" fill-rule="evenodd" stroke="#000000" stroke-width="1" stroke-linecap="square" stroke-linejoin="bevel" d="M24.5505 0C19.3121 22.9747 1.13054 20.7598 5.63428 75.9586C8.0744 85.265 14.9895 89.0309 1.71736 117.79C-3.22888 134.514 4.19258 141.155 3.10811 147.693C4.45386 159.472 9.05955 159.724 11.1044 169.317C12.6112 156.313 17.6505 153.103 15.7937 141.791C16.9755 122.977 24.0137 124.662 28.1605 116.226C31.6345 107.43 40.5984 104.475 35.9615 84.5844C28.457 77.1226 32.3289 69.6608 31.9894 62.199C35.6583 47.2455 24.88 46.6467 30.4356 34.8216C31.892 31.023 32.1819 15.115 24.5505 0Z" sodipodi:nodetypes="ccccccccccc"/><path id="shape02" transform="matrix(-1.15968418893854 0 0 1.15968418893854 587.36064414149 195.463427673924)" fill="#ffffff" fill-rule="evenodd" stroke="#000000" stroke-width="1" stroke-linecap="square" stroke-linejoin="bevel" d="M207.159 10.3463C199.165 7.46435 193.602 6.28524 190.47 6.80899C181.224 8.35533 176.304 12.2751 172.692 12.1358C167.781 11.9464 161.549 2.44985 149.284 0C125.521 2.09358 130.631 36.0444 0 35.7559C24.9683 55.9243 57.5877 58.1771 97.8582 42.5143C68.6878 54.4021 39.0386 58.4086 7.57865 59.2798C52.634 78.8177 54.8181 80.1352 123.356 49.8218C98.4149 60.7593 74.0819 72.2421 57.8537 75.2724C57.7811 82.6754 50.0078 88.4853 39.6365 93.7576C64.3722 97.2238 87.3156 85.1599 126.829 59.8333C109.918 70.9949 93.9433 83.6427 83.0365 104.34C97.3701 98.9547 108.949 96.7967 135.158 77.5C114.302 90.8188 109.886 109.561 110.764 115.859C142.44 86.1256 152.556 78.2985 161.532 72.5934L192.618 63.9904C193.912 61.462 198.759 43.5807 207.159 10.3463Z" sodipodi:nodetypes="csscccccccccccccc"/><path id="shape12" transform="matrix(-1.15968418893854 0 0 1.15968418893854 553.246506233299 221.641365467437)" fill="#ffffff" fill-rule="evenodd" stroke="#000000" stroke-width="1" stroke-linecap="square" stroke-linejoin="bevel" d="M206.055 8.3476C198.034 -7.62819 193.101 3.10131 190.138 9.50694C183.603 20.8473 179.325 24.4667 170.164 29.7683C161.89 32.511 152.555 33.3526 140.684 29.6464C130.086 41.5055 120.806 53.3247 115.256 65.0311C78.6465 97.2929 42.8234 111.687 0 130.077C25.2254 145.04 63.3754 123.115 107.003 92.7681C85.949 107.09 62.3849 125.17 42.8774 132.021C38.3629 146.89 27.8742 145.415 19.175 148.835C54.9379 167.278 111.003 111.086 121.934 100.688C67.5835 145.529 67.3927 145.458 44.863 153.65C90.3602 170.108 122.061 118.207 140.209 98.1911C114.594 129.098 111.788 133.586 94.6496 150.04C110.242 151.613 128.274 145.232 158.887 97.815C151.295 108.867 147.438 117.945 135.663 131.208C145.162 138.567 154.027 129.207 164.302 111.318C165.62 114.609 165.698 118.852 173.125 117.457C174.544 110.122 170.605 105.343 169.404 99.9056C178.777 72.4639 198.933 64.8622 210.683 54.9267C212.294 53.8738 210.751 38.3475 206.055 8.3476Z" sodipodi:nodetypes="cccccccccccccccccccc"/><path id="shape03" transform="matrix(-1.15968414174494 0 0 1.15968414174494 314.723829893919 248.714016098478)" fill="#ffffff" fill-rule="evenodd" stroke="#000000" stroke-width="1" stroke-linecap="square" stroke-linejoin="bevel" d="M70.5635 64.8318C72.6382 63.8591 76.9274 53.0664 66.8135 40.8318C100.884 33.2264 73.2284 2.67071 65.0034 0L21.2924 31.5818L25.5422 80.0608L80.4318 105.155L86.5385 95.3099C103.078 78.4282 115.042 78.2528 129.066 74.2355C106.306 75.358 87.8877 89.2772 79.7889 109.059C66.9889 121.568 59.7042 141.797 34.6257 137.116C29.7036 137.204 17.8511 128.668 20.982 148.601C23.5222 163.783 20.9638 170.583 17.147 176.47C13.2145 186.253 5.6547 189.979 1.60001 193.063C-1.81806 197.728 0.511746 197.601 6.01355 200.301C16.5002 197.921 11.6117 198.417 23.044 191.247C32.2545 183.207 42.1718 165.863 50.8533 153.09C76.7628 127.382 75.7946 139.15 90.8155 124.198C133.215 100.749 150.281 92.5602 162.034 78.061C162.166 69.1331 162.991 59.5702 155.388 57.7322C134.785 41.6164 106.51 43.9829 70.5635 64.8318Z" sodipodi:nodetypes="cccccccccccccccccccc"/><path id="shape13" transform="matrix(-1.15968414174494 0 0 1.15968414174494 263.041444233185 69.6651415284288)" fill="#ffffff" fill-rule="evenodd" stroke="#000000" stroke-width="1" stroke-linecap="square" stroke-linejoin="bevel" d="M15.7648 104.337C16.4704 95.4872 12.1982 90.9038 18.7613 77.0329C26.2107 73.5967 27.0683 71.3589 29.6817 68.8019C51.2343 71.9593 46.4149 67.1509 46.6512 63.6152C45.2021 36.222 45.5259 32.8875 47.3422 31.2868C39.7674 30.897 42.4165 19.6018 41.2139 12.415L34.2674 0C29.5126 7.1236 24.5174 14.1671 15.5994 19.903C12.4866 35.0018 5.51605 27.65 6.94643 44.5166C9.55706 48.9534 10.364 53.4462 16.9366 55.682C-7.41426 70.4654 5.12203 75.8618 0 86.465C0.0267068 86.4265 5.28164 92.384 15.7648 104.337Z" sodipodi:nodetypes="cccccccccccc"/><path id="shape21" transform="matrix(-1.15968414174494 0 0 1.15968414174494 307.468872812436 214.192349259538)" fill="#ffffff" fill-rule="evenodd" stroke="#000000" stroke-width="1" stroke-linecap="square" stroke-linejoin="bevel" d="M38.7425 51.2115C54.6521 43.122 51.3265 23.5368 50.8491 18.2935C47.841 11.3404 43.9059 1.77701 37.1732 0C24.3064 0.284969 14.299 10.6079 10.6142 23.7983C7.41159 30.9429 4.8042 46.4955 8.18447 55.0641C1.47435 73.5436 -4.37661 93.2841 4.53141 119.359C24.7473 134.684 45.7317 141.21 58.4711 145.902L101.364 142.932C85.5465 128.503 77.177 126.429 67.676 122.478C24.1072 97.2168 25.0029 99.061 25.5978 87.2186C31.0997 76.9556 35.4813 64.9532 38.7425 51.2115Z" sodipodi:nodetypes="ccccccccccc"/><path id="shape3" transform="matrix(-1.15968414174494 0 0 1.15968414174494 305.49516977232 354.713980387301)" fill="#ffffff" fill-rule="evenodd" stroke="#000000" stroke-width="1" stroke-linecap="square" stroke-linejoin="bevel" d="M6.80168 0C-1.50675 10.7399 -5.16344 34.4433 13.4635 43.8159C31.2621 49.2421 39.1383 51.7894 96.074 43.6348C106.324 100.639 111.717 93.5259 170.316 134.49C166.625 151.54 176.689 156.068 191.246 153.42C192.882 156.63 196.084 159.542 209.741 160.47C213.098 170.158 223.212 171.132 234.278 168.73C236.36 168.438 238.456 168.004 240.987 162.938C242.792 154.136 239.52 155.675 237.501 154.644C233.231 155.63 229.425 154.755 226.248 151.358C213.725 141.679 204.407 136.383 190.704 126.497C146.716 87.6665 139.788 56.4337 114.746 20.9329C106.758 17.575 63.8674 17.791 38.7384 18.2669C24.3284 13.5488 13.6828 7.45982 6.80168 0Z" sodipodi:nodetypes="cccccccccccccc"/><path id="shape04" transform="matrix(-1.15968415435803 0 0 1.15968415435803 365.316464131469 48.32782725979)" fill="#ffffff" fill-rule="evenodd" stroke="#000000" stroke-width="1" stroke-linecap="square" stroke-linejoin="bevel" d="M128.64 28.1193C111.419 20.2943 115.155 46.5421 94.8379 56.4742C98.1669 63.24 95.8979 67.8883 109.195 75.1419C91.989 86.8483 92.7046 93.2846 87.3545 104.144C107.892 110.589 116.577 115.685 118.741 131.71C123.005 150.098 110.43 158.429 115.815 173.626C119.006 180.419 120.799 182.228 128.582 187.873C158.351 190.661 157.584 204.762 163.458 219.901C161.1 234.527 167.027 243.379 175.599 250.386C161.911 247.279 153.117 250.35 151.481 234.901C149.807 223.081 149.934 208.016 128.685 209.325C117.373 209.852 98.9 195.929 99.2993 177.87C95.4876 144.883 88.3563 133.788 81.88 121.523C85.3574 128.073 89.7126 135.025 92.5776 145.145C85.1186 142.659 72.4722 158.394 59.9978 164.734C63.3979 194.431 51.4575 219.923 51.3324 247.679C42.0821 203.119 31.581 210.389 42.7851 157.936C59.4441 135.366 56.9458 121.331 56.8005 106.249C53.4727 122.433 65.2495 117.716 42.6066 158.859C41.8991 163.951 41.5625 148.05 37.0697 149.388C26.9443 154.835 21.4978 178.721 0 180.682C1.74454 163.343 7.9355 147.626 19.392 133.832C15.4162 75.6884 23.5238 25.6701 73.8314 4.02776C86.7643 -2.248 97.2951 0.372425 104.598 1.60276C115.174 3.94839 130.516 15.5519 128.64 28.1193Z" sodipodi:nodetypes="ccccccccccccccccccccccccc"/><path id="shape05" transform="matrix(-1.15968414678766 0 0 1.15968414678766 353.488083403138 89.4526617013133)" fill="#000000" fill-rule="evenodd" stroke="#000000" stroke-width="1" stroke-linecap="square" stroke-linejoin="bevel" d="M94.0403 0C94.7128 9.32703 87.4659 14.8829 78.3279 19.5383C51.2974 29.1502 44.1148 25.8252 10.7834 18.113C9.43915 21.9699 8.23229 25.8177 0 30.1338C3.24975 32.6622 4.57349 35.1906 5.49003 37.7189C17.0539 36.0937 25.0786 31.8142 30.994 25.9527C38.4527 30.3643 34.8716 36.7753 38.5771 49.918C51.9687 50.5042 52.0629 38.8157 53.6557 28.5105C82.5629 21.7974 96.0244 12.2939 94.0403 0Z" sodipodi:nodetypes="ccccccccc"/>
</svg>
